<svg width="51" height="51" viewBox="0 0 51 51" fill="none" xmlns="http://www.w3.org/2000/svg">
<path d="M25.5 50.5C39.3071 50.5 50.5 39.3071 50.5 25.5C50.5 11.6929 39.3071 0.5 25.5 0.5C11.6929 0.5 0.5 11.6929 0.5 25.5C0.5 39.3071 11.6929 50.5 25.5 50.5Z" stroke="#1B1B1B"/>
<path d="M25.5 43C35.165 43 43 35.165 43 25.5C43 15.835 35.165 8 25.5 8C15.835 8 8 15.835 8 25.5C8 35.165 15.835 43 25.5 43Z" stroke="#BCBCBC"/>
<path d="M27.4032 21.729L30.7744 25.1C30.974 25.3 30.9923 25.612 30.8293 25.832L30.7749 25.895L27.4036 29.274C27.1842 29.494 26.828 29.494 26.6081 29.275C26.4082 29.075 26.3897 28.763 26.5528 28.543L26.6072 28.479L29.0199 26.062L19.498 26.063C19.2133 26.063 18.9779 25.851 18.9406 25.577L18.9355 25.5C18.9355 25.215 19.1471 24.98 19.4217 24.943L19.498 24.938L29.0214 24.937L26.6077 22.525C26.408 22.325 26.3898 22.013 26.5532 21.792L26.6077 21.729C26.8074 21.53 27.1198 21.511 27.3401 21.675L27.4032 21.729L30.7744 25.1L27.4032 21.729Z" fill="#BCBCBC"/>
</svg>
